<svg xmlns="http://www.w3.org/2000/svg" width="16" height="16" viewBox="0 0 24 24" fill="none" stroke="#2e3436" stroke-width="2" stroke-linecap="round" stroke-linejoin="round"><path class="foreground-stroke transparent-fill" fill="none" d="M21 8a2 2 0 0 0-1-1.73l-7-4a2 2 0 0 0-2 0l-7 4A2 2 0 0 0 3 8v8a2 2 0 0 0 1 1.73l7 4a2 2 0 0 0 2 0l7-4A2 2 0 0 0 21 16Z"/><path class="foreground-stroke transparent-fill" fill="none" d="m3.3 7 8.7 5 8.7-5"/><path class="foreground-stroke transparent-fill" fill="none" d="M12 22V12"/></svg>
